<?xml version="1.0" standalone="no"?>
<!DOCTYPE svg PUBLIC "-//W3C//DTD SVG 20010904//EN"
 "http://www.w3.org/TR/2001/REC-SVG-20010904/DTD/svg10.dtd">
<svg version="1.0" xmlns="http://www.w3.org/2000/svg"
 width="180.000000pt" height="180.000000pt" viewBox="0 0 180.000000 180.000000"
 preserveAspectRatio="xMidYMid meet">

<g transform="translate(0.000000,180.000000) scale(0.100000,-0.100000)"
fill="#000000" stroke="none">
<path d="M413 1428 c-18 -29 -46 -89 -64 -133 -29 -72 -32 -93 -37 -215 -4
-117 -2 -145 17 -213 32 -119 30 -115 197 -299 19 -21 53 -50 77 -64 23 -15
45 -31 48 -36 14 -22 130 -50 226 -56 89 -4 112 -2 174 18 40 13 96 40 125 59
51 35 134 133 134 158 0 6 7 16 16 21 15 8 71 151 79 202 2 14 7 64 11 113 6
77 5 87 -10 87 -9 0 -16 -3 -17 -7 0 -5 -2 -33 -4 -63 -3 -30 -10 -82 -17
-115 l-13 -60 -5 115 c-5 104 -9 119 -34 160 -54 85 -89 121 -142 148 l-55 28
61 44 c34 25 74 55 89 68 l29 22 25 -42 c46 -80 68 -157 65 -222 -3 -51 0 -61
15 -64 15 -3 17 5 17 66 0 43 -8 91 -20 126 -20 60 -74 161 -91 171 -5 4 -35
-14 -66 -38 -32 -24 -81 -60 -110 -80 l-52 -36 -43 19 c-58 25 -114 35 -123
21 -3 -6 -11 -9 -16 -6 -5 4 -15 3 -21 -2 -13 -8 -19 -10 -40 -12 -9 -1 -9 -4
0 -13 9 -9 15 -9 24 0 16 16 38 15 95 -4 100 -33 210 -88 260 -130 75 -65 88
-108 88 -304 0 -144 -2 -158 -24 -204 -37 -75 -115 -149 -186 -176 -94 -36
-188 -37 -320 -6 -127 31 -176 56 -238 126 -69 76 -87 136 -87 280 0 168 12
215 66 268 56 53 140 109 179 118 17 4 39 13 50 20 11 8 32 14 47 14 24 0 28
4 28 30 0 16 13 48 29 72 26 37 28 45 16 57 -21 22 -42 -1 -56 -63 -11 -51
-13 -53 -58 -65 -25 -6 -65 -21 -89 -33 -50 -24 -41 -30 -130 87 -37 49 -72
90 -77 92 -6 2 -25 -20 -42 -49z m153 -141 l20 -31 -68 -65 c-82 -77 -87 -85
-105 -176 -17 -91 -16 -166 2 -235 19 -72 19 -72 -10 -24 -70 117 -86 375 -31
518 14 37 38 90 52 117 l27 49 46 -62 c25 -33 55 -75 67 -91z"/>
<path d="M1010 1450 c20 -13 33 -13 25 0 -3 6 -14 10 -23 10 -15 0 -15 -2 -2
-10z"/>
<path d="M914 1429 c-22 -12 -41 -27 -41 -35 0 -10 7 -8 23 7 12 11 39 27 61
34 22 8 30 14 18 14 -11 1 -38 -9 -61 -20z"/>
<path d="M929 1393 c-13 -16 -12 -17 4 -4 16 13 21 21 13 21 -2 0 -10 -8 -17
-17z"/>
<path d="M992 1379 c-17 -21 -19 -27 -7 -23 15 6 40 43 33 49 -2 1 -13 -11
-26 -26z"/>
<path d="M845 1369 c-4 -6 -5 -12 -2 -15 2 -3 7 2 10 11 7 17 1 20 -8 4z"/>
<path d="M705 1082 c-85 -2 -102 -6 -112 -21 -28 -45 46 -82 85 -43 12 12 44
22 83 28 44 6 64 13 64 23 0 18 2 17 -120 13z"/>
<path d="M969 1053 c-11 -30 -2 -52 26 -59 36 -9 59 -1 70 23 8 18 19 23 60
25 36 2 50 7 50 18 0 12 -18 15 -99 15 -93 1 -98 0 -107 -22z"/>
<path d="M1050 761 c-47 -26 -84 -66 -77 -85 9 -23 22 -19 35 10 7 15 30 33
57 45 25 11 45 26 45 34 0 20 -17 18 -60 -4z"/>
<path d="M1004 395 c-6 -11 -10 -27 -9 -35 1 -8 -3 -21 -8 -28 -7 -9 0 -11 32
-9 35 3 41 0 41 -15 0 -11 5 -16 10 -13 12 8 13 102 1 109 -12 8 -22 -20 -14
-41 6 -15 4 -16 -9 -5 -13 10 -17 10 -21 0 -2 -7 -7 -10 -11 -7 -4 4 0 14 9
22 16 17 21 32 6 23 -5 -4 -11 0 -13 6 -3 8 -8 6 -14 -7z"/>
<path d="M730 385 c0 -8 -4 -15 -9 -15 -5 0 -8 -12 -6 -27 2 -16 4 -31 4 -35
1 -5 6 -8 11 -8 6 0 10 14 10 30 0 20 5 30 15 30 8 0 15 5 15 10 0 6 5 10 12
10 9 0 9 -3 0 -12 -17 -17 -15 -68 3 -68 11 0 13 8 8 32 -5 27 -4 30 12 25 13
-6 16 -3 11 9 -3 8 -6 19 -6 22 0 15 -49 9 -53 -7 -4 -14 -5 -14 -6 2 -1 21
-21 23 -21 2z"/>
<path d="M888 393 c-19 -5 -25 -23 -9 -23 17 0 41 12 41 21 0 9 -4 10 -32 2z"/>
<path d="M870 350 c0 -5 9 -10 19 -10 11 0 23 5 26 10 4 6 -5 10 -19 10 -14 0
-26 -4 -26 -10z"/>
<path d="M860 320 c0 -5 16 -10 35 -10 19 0 35 5 35 10 0 6 -16 10 -35 10 -19
0 -35 -4 -35 -10z"/>
</g>
</svg>
